<svg xmlns="http://www.w3.org/2000/svg" xmlns:xlink="http://www.w3.org/1999/xlink" width="380pt" height="786pt" viewBox="0.00 0.00 380.00 786.00">
<g id="graph0" class="graph" transform="scale(1 1) rotate(0) translate(4 782.4)">
<title>CandidateFlow</title>
<polygon fill="white" stroke="none" points="-4,4 -4,-782.4 375.75,-782.4 375.75,4 -4,4"/>
<!-- Start -->
<g id="node1" class="node">
<title>Start</title>
<ellipse fill="none" stroke="black" cx="137.28" cy="-760.4" rx="27" ry="18"/>
<text xml:space="preserve" text-anchor="middle" x="137.28" y="-757.1" font-family="Helvetica,sans-Serif" font-size="11.00">Start</text>
</g>
<!-- Setup -->
<g id="node2" class="node">
<title>Setup</title>
<path fill="none" stroke="black" d="M249.14,-705.4C249.14,-705.4 25.43,-705.4 25.43,-705.4 19.43,-705.4 13.43,-699.4 13.43,-693.4 13.43,-693.4 13.43,-681.4 13.43,-681.4 13.43,-675.4 19.43,-669.4 25.43,-669.4 25.43,-669.4 249.14,-669.4 249.14,-669.4 255.14,-669.4 261.14,-675.4 261.14,-681.4 261.14,-681.4 261.14,-693.4 261.14,-693.4 261.14,-699.4 255.14,-705.4 249.14,-705.4"/>
<text xml:space="preserve" text-anchor="middle" x="137.28" y="-684.1" font-family="Helvetica,sans-Serif" font-size="11.00">Enter Code → Upload Resume → Extract Fields</text>
</g>
<!-- Start&#45;&gt;Setup -->
<g id="edge1" class="edge">
<title>Start-&gt;Setup</title>
<path fill="none" stroke="black" d="M137.28,-741.98C137.28,-741.98 137.28,-717.33 137.28,-717.33"/>
<polygon fill="black" stroke="black" points="140.78,-717.33 137.28,-707.33 133.78,-717.33 140.78,-717.33"/>
</g>
<!-- Missing -->
<g id="node3" class="node">
<title>Missing</title>
<path fill="none" stroke="black" d="M125.57,-629.78C125.57,-629.78 68.67,-617.02 68.67,-617.02 62.82,-615.71 62.82,-613.09 68.67,-611.78 68.67,-611.78 125.57,-599.02 125.57,-599.02 131.43,-597.71 143.14,-597.71 148.99,-599.02 148.99,-599.02 205.89,-611.78 205.89,-611.78 211.75,-613.09 211.75,-615.71 205.89,-617.02 205.89,-617.02 148.99,-629.78 148.99,-629.78 143.14,-631.09 131.43,-631.09 125.57,-629.78"/>
<text xml:space="preserve" text-anchor="middle" x="137.28" y="-611.1" font-family="Helvetica,sans-Serif" font-size="11.00">Fields Missing?</text>
</g>
<!-- Setup&#45;&gt;Missing -->
<g id="edge2" class="edge">
<title>Setup-&gt;Missing</title>
<path fill="none" stroke="black" d="M137.28,-668.98C137.28,-668.98 137.28,-644.33 137.28,-644.33"/>
<polygon fill="black" stroke="black" points="140.78,-644.33 137.28,-634.33 133.78,-644.33 140.78,-644.33"/>
</g>
<!-- Manual -->
<g id="node4" class="node">
<title>Manual</title>
<path fill="none" stroke="black" d="M112.87,-543.6C112.87,-543.6 67.69,-543.6 67.69,-543.6 61.69,-543.6 55.69,-537.6 55.69,-531.6 55.69,-531.6 55.69,-519.6 55.69,-519.6 55.69,-513.6 61.69,-507.6 67.69,-507.6 67.69,-507.6 112.87,-507.6 112.87,-507.6 118.87,-507.6 124.87,-513.6 124.87,-519.6 124.87,-519.6 124.87,-531.6 124.87,-531.6 124.87,-537.6 118.87,-543.6 112.87,-543.6"/>
<text xml:space="preserve" text-anchor="middle" x="90.28" y="-522.3" font-family="Helvetica,sans-Serif" font-size="11.00">Manual Fill</text>
</g>
<!-- Missing&#45;&gt;Manual -->
<g id="edge3" class="edge">
<title>Missing-&gt;Manual</title>
<path fill="none" stroke="black" d="M90.92,-606.52C90.92,-606.52 90.92,-555.56 90.92,-555.56"/>
<polygon fill="black" stroke="black" points="94.42,-555.56 90.92,-545.56 87.42,-555.56 94.42,-555.56"/>
<text xml:space="preserve" text-anchor="middle" x="127.17" y="-565.8" font-family="Times,serif" font-size="14.00">Yes</text>
</g>
<!-- Rules -->
<g id="node5" class="node">
<title>Rules</title>
<polygon fill="none" stroke="black" points="198.49,-470.6 68.07,-470.6 68.07,-434.6 204.49,-434.6 204.49,-464.6 198.49,-470.6"/>
<polyline fill="none" stroke="black" points="198.49,-470.6 198.49,-464.6"/>
<polyline fill="none" stroke="black" points="204.49,-464.6 198.49,-464.6"/>
<text xml:space="preserve" text-anchor="middle" x="136.28" y="-455.9" font-family="Helvetica,sans-Serif" font-size="11.00">Show Instructions</text>
<text xml:space="preserve" text-anchor="middle" x="136.28" y="-442.7" font-family="Helvetica,sans-Serif" font-size="11.00">(Rules, Scoring, Criteria)</text>
</g>
<!-- Missing&#45;&gt;Rules -->
<g id="edge5" class="edge">
<title>Missing-&gt;Rules</title>
<path fill="none" stroke="black" d="M164.68,-602.24C164.68,-602.24 164.68,-482.46 164.68,-482.46"/>
<polygon fill="black" stroke="black" points="168.18,-482.46 164.68,-472.46 161.18,-482.46 168.18,-482.46"/>
<text xml:space="preserve" text-anchor="middle" x="191.84" y="-521.4" font-family="Times,serif" font-size="14.00">No</text>
</g>
<!-- Manual&#45;&gt;Rules -->
<g id="edge4" class="edge">
<title>Manual-&gt;Rules</title>
<path fill="none" stroke="black" d="M96.47,-507.18C96.47,-507.18 96.47,-482.53 96.47,-482.53"/>
<polygon fill="black" stroke="black" points="99.97,-482.53 96.47,-472.53 92.97,-482.53 99.97,-482.53"/>
</g>
<!-- ClusterQ -->
<g id="node6" class="node">
<title>ClusterQ</title>
<polygon fill="none" stroke="black" points="197.78,-397.6 194.78,-401.6 173.78,-401.6 170.78,-397.6 74.78,-397.6 74.78,-323.6 197.78,-323.6 197.78,-397.6"/>
<text xml:space="preserve" text-anchor="middle" x="136.28" y="-383.7" font-family="Helvetica,sans-Serif" font-size="11.00">Question Flow:</text>
<text xml:space="preserve" text-anchor="middle" x="136.28" y="-370.5" font-family="Helvetica,sans-Serif" font-size="11.00">- Timer (120s)</text>
<text xml:space="preserve" text-anchor="middle" x="136.28" y="-357.3" font-family="Helvetica,sans-Serif" font-size="11.00">- No tab switch/close</text>
<text xml:space="preserve" text-anchor="middle" x="136.28" y="-344.1" font-family="Helvetica,sans-Serif" font-size="11.00">- Empty = 0</text>
<text xml:space="preserve" text-anchor="middle" x="136.28" y="-330.9" font-family="Helvetica,sans-Serif" font-size="11.00">- Feedback after each</text>
</g>
<!-- Rules&#45;&gt;ClusterQ -->
<g id="edge6" class="edge">
<title>Rules-&gt;ClusterQ</title>
<path fill="none" stroke="black" d="M136.28,-434.42C136.28,-434.42 136.28,-409.28 136.28,-409.28"/>
<polygon fill="black" stroke="black" points="139.78,-409.28 136.28,-399.28 132.78,-409.28 139.78,-409.28"/>
</g>
<!-- Loop -->
<g id="node7" class="node">
<title>Loop</title>
<path fill="none" stroke="black" d="M75.53,-268.38C75.53,-268.38 11.75,-255.22 11.75,-255.22 5.88,-254.01 5.88,-251.59 11.75,-250.38 11.75,-250.38 75.53,-237.22 75.53,-237.22 81.41,-236.01 93.16,-236.01 99.03,-237.22 99.03,-237.22 162.81,-250.38 162.81,-250.38 168.69,-251.59 168.69,-254.01 162.81,-255.22 162.81,-255.22 99.03,-268.38 99.03,-268.38 93.16,-269.59 81.41,-269.59 75.53,-268.38"/>
<text xml:space="preserve" text-anchor="middle" x="87.28" y="-249.5" font-family="Helvetica,sans-Serif" font-size="11.00">More Questions?</text>
</g>
<!-- ClusterQ&#45;&gt;Loop -->
<g id="edge7" class="edge">
<title>ClusterQ-&gt;Loop</title>
<path fill="none" stroke="black" d="M108.04,-323.2C108.04,-323.2 108.04,-278.38 108.04,-278.38"/>
<polygon fill="black" stroke="black" points="111.54,-278.38 108.04,-268.38 104.54,-278.38 111.54,-278.38"/>
</g>
<!-- Abandoned -->
<g id="node8" class="node">
<title>Abandoned</title>
<ellipse fill="#ffcccc" stroke="black" cx="277.28" cy="-252.8" rx="73.84" ry="18"/>
<text xml:space="preserve" text-anchor="middle" x="277.28" y="-249.5" font-family="Helvetica,sans-Serif" font-size="11.00">Interview Abandoned</text>
</g>
<!-- ClusterQ&#45;&gt;Abandoned -->
<g id="edge12" class="edge">
<title>ClusterQ-&gt;Abandoned</title>
<path fill="none" stroke="black" stroke-dasharray="5,2" d="M186.17,-323.27C186.17,-292.19 186.17,-253 186.17,-253 186.17,-253 191.8,-253 191.8,-253"/>
<polygon fill="black" stroke="black" points="191.8,-256.5 201.8,-253 191.8,-249.5 191.8,-256.5"/>
<text xml:space="preserve" text-anchor="middle" x="324.52" y="-293" font-family="Times,serif" font-size="14.00">Tab switch/close</text>
</g>
<!-- Loop&#45;&gt;ClusterQ -->
<g id="edge8" class="edge">
<title>Loop-&gt;ClusterQ</title>
<path fill="none" stroke="black" d="M141.3,-259.87C141.3,-259.87 141.3,-311.84 141.3,-311.84"/>
<polygon fill="black" stroke="black" points="137.8,-311.84 141.3,-321.84 144.8,-311.84 137.8,-311.84"/>
<text xml:space="preserve" text-anchor="middle" x="147.17" y="-293" font-family="Times,serif" font-size="14.00">Yes</text>
</g>
<!-- Final -->
<g id="node9" class="node">
<title>Final</title>
<path fill="none" stroke="black" d="M134.94,-182C134.94,-182 39.62,-182 39.62,-182 33.62,-182 27.62,-176 27.62,-170 27.62,-170 27.62,-158 27.62,-158 27.62,-152 33.62,-146 39.62,-146 39.62,-146 134.94,-146 134.94,-146 140.94,-146 146.94,-152 146.94,-158 146.94,-158 146.94,-170 146.94,-170 146.94,-176 140.94,-182 134.94,-182"/>
<text xml:space="preserve" text-anchor="middle" x="87.28" y="-160.7" font-family="Helvetica,sans-Serif" font-size="11.00">Compute Final Score</text>
</g>
<!-- Loop&#45;&gt;Final -->
<g id="edge9" class="edge">
<title>Loop-&gt;Final</title>
<path fill="none" stroke="black" d="M87.28,-234.4C87.28,-234.4 87.28,-193.89 87.28,-193.89"/>
<polygon fill="black" stroke="black" points="90.78,-193.89 87.28,-183.89 83.78,-193.89 90.78,-193.89"/>
<text xml:space="preserve" text-anchor="middle" x="95.84" y="-204.2" font-family="Times,serif" font-size="14.00">No</text>
</g>
<!-- Breakdown -->
<g id="node10" class="node">
<title>Breakdown</title>
<path fill="none" stroke="black" d="M126.08,-109C126.08,-109 48.48,-109 48.48,-109 42.48,-109 36.48,-103 36.48,-97 36.48,-97 36.48,-85 36.48,-85 36.48,-79 42.48,-73 48.48,-73 48.48,-73 126.08,-73 126.08,-73 132.08,-73 138.08,-79 138.08,-85 138.08,-85 138.08,-97 138.08,-97 138.08,-103 132.08,-109 126.08,-109"/>
<text xml:space="preserve" text-anchor="middle" x="87.28" y="-87.7" font-family="Helvetica,sans-Serif" font-size="11.00">Show Breakdown</text>
</g>
<!-- Final&#45;&gt;Breakdown -->
<g id="edge10" class="edge">
<title>Final-&gt;Breakdown</title>
<path fill="none" stroke="black" d="M87.28,-145.58C87.28,-145.58 87.28,-120.93 87.28,-120.93"/>
<polygon fill="black" stroke="black" points="90.78,-120.93 87.28,-110.93 83.78,-120.93 90.78,-120.93"/>
</g>
<!-- End -->
<g id="node11" class="node">
<title>End</title>
<ellipse fill="none" stroke="black" cx="87.28" cy="-18" rx="27" ry="18"/>
<text xml:space="preserve" text-anchor="middle" x="87.28" y="-14.7" font-family="Helvetica,sans-Serif" font-size="11.00">End</text>
</g>
<!-- Breakdown&#45;&gt;End -->
<g id="edge11" class="edge">
<title>Breakdown-&gt;End</title>
<path fill="none" stroke="black" d="M87.28,-72.58C87.28,-72.58 87.28,-47.93 87.28,-47.93"/>
<polygon fill="black" stroke="black" points="90.78,-47.93 87.28,-37.93 83.78,-47.93 90.78,-47.93"/>
</g>
</g>
</svg>